<?xml version="1.0" encoding="utf-8"?>
<!-- Generator: Adobe Illustrator 21.0.0, SVG Export Plug-In . SVG Version: 6.00 Build 0)  -->
<svg version="1.2" baseProfile="tiny" id="Layer_1" xmlns="http://www.w3.org/2000/svg" xmlns:xlink="http://www.w3.org/1999/xlink"
	 x="0px" y="0px" viewBox="0 0 372 135" overflow="scroll" xml:space="preserve">
<path d="M2.7,34c-0.6,0-1.2-0.3-1.5-0.9c-0.5-0.8-0.1-1.8,0.7-2.3L60,0.7c0.8-0.5,1.8-0.1,2.3,0.7c0.4,0.8,0.1,1.8-0.7,2.3L3.5,33.8
	C3.2,34,2.9,34,2.7,34z"/>
<path d="M2.7,42.6c-0.6,0-1.2-0.3-1.5-0.9c-0.5-0.8-0.1-1.8,0.7-2.3L60,9.3c0.8-0.5,1.8-0.1,2.3,0.7c0.4,0.8,0.1,1.8-0.7,2.3
	L3.5,42.5C3.2,42.6,2.9,42.6,2.7,42.6z"/>
<path d="M2.7,51.3c-0.6,0-1.2-0.3-1.5-0.9c-0.5-0.8-0.1-1.8,0.7-2.3L60,18c0.8-0.5,1.8-0.1,2.3,0.7c0.4,0.8,0.1,1.8-0.7,2.3
	L3.5,51.2C3.2,51.3,2.9,51.3,2.7,51.3z"/>
<path d="M2.7,60c-0.6,0-1.2-0.3-1.5-0.9c-0.5-0.8-0.1-1.8,0.7-2.3L60,26.7c0.8-0.5,1.8-0.1,2.3,0.7s0.1,1.8-0.7,2.3L3.5,59.8
	C3.2,59.9,2.9,60,2.7,60z"/>
<path d="M2.7,68.7c-0.6,0-1.2-0.3-1.5-0.9c-0.5-0.8-0.1-1.8,0.7-2.3L60,35.4c0.8-0.5,1.8-0.1,2.3,0.7c0.4,0.8,0.1,1.8-0.7,2.3
	L3.5,68.5C3.2,68.6,2.9,68.7,2.7,68.7z"/>
<path d="M2.7,77.3c-0.6,0-1.2-0.3-1.5-0.9c-0.5-0.8-0.1-1.8,0.7-2.3L60,44c0.8-0.5,1.8-0.1,2.3,0.7s0.1,1.8-0.7,2.3L3.5,77.1
	C3.2,77.3,2.9,77.3,2.7,77.3z"/>
<path d="M2.7,86c-0.6,0-1.2-0.3-1.5-0.9c-0.5-0.8-0.1-1.8,0.7-2.3L60,52.7c0.8-0.5,1.8-0.1,2.3,0.7c0.4,0.8,0.1,1.8-0.7,2.3
	L3.5,85.8C3.2,85.9,2.9,86,2.7,86z"/>
<path d="M2.7,94.6c-0.6,0-1.2-0.3-1.5-0.9c-0.5-0.8-0.1-1.8,0.7-2.3L60,61.3c0.8-0.5,1.8-0.1,2.3,0.7c0.4,0.8,0.1,1.8-0.7,2.3
	L3.5,94.5C3.2,94.6,2.9,94.6,2.7,94.6z"/>
<path d="M2.7,103.3c-0.6,0-1.2-0.3-1.5-0.9c-0.5-0.8-0.1-1.8,0.7-2.3L60,70c0.8-0.5,1.8-0.1,2.3,0.7c0.4,0.8,0.1,1.8-0.7,2.3
	L3.5,103.2C3.2,103.3,2.9,103.3,2.7,103.3z"/>
<path fill="#6839D3" d="M60.7,64.1c-0.3,0-0.5-0.1-0.8-0.2L1.9,33.8c-0.8-0.5-1.2-1.4-0.7-2.3c0.4-0.8,1.4-1.2,2.3-0.7L61.5,61
	c0.8,0.5,1.2,1.4,0.7,2.3C61.9,63.8,61.3,64.1,60.7,64.1z"/>
<path fill="#6839D3" d="M60.7,72.8c-0.3,0-0.5-0.1-0.8-0.2L1.9,42.5C1.1,42,0.8,41,1.2,40.2c0.4-0.8,1.4-1.2,2.3-0.7l58.1,30.2
	c0.8,0.5,1.2,1.4,0.7,2.3C61.9,72.5,61.3,72.8,60.7,72.8z"/>
<path fill="#6839D3" d="M60.7,81.5c-0.3,0-0.5-0.1-0.8-0.2L1.9,51.2c-0.8-0.5-1.2-1.4-0.7-2.3c0.4-0.8,1.4-1.2,2.3-0.7l58.1,30.2
	c0.8,0.5,1.2,1.4,0.7,2.3C61.9,81.1,61.3,81.5,60.7,81.5z"/>
<path fill="#6839D3" d="M60.7,90.1c-0.3,0-0.5-0.1-0.8-0.2L1.9,59.8c-0.8-0.5-1.2-1.4-0.7-2.3c0.4-0.8,1.4-1.2,2.3-0.7L61.5,87
	c0.8,0.5,1.2,1.4,0.7,2.3C61.9,89.8,61.3,90.1,60.7,90.1z"/>
<path fill="#6839D3" d="M60.7,98.8c-0.3,0-0.5-0.1-0.8-0.2L1.9,68.5c-0.8-0.5-1.2-1.4-0.7-2.3c0.4-0.8,1.4-1.2,2.3-0.7l58.1,30.2
	c0.8,0.5,1.2,1.4,0.7,2.3C61.9,98.4,61.3,98.8,60.7,98.8z"/>
<path fill="#6839D3" d="M60.7,107.5c-0.3,0-0.5-0.1-0.8-0.2L1.9,77.1c-0.8-0.5-1.2-1.4-0.7-2.3c0.4-0.8,1.4-1.2,2.3-0.7l58.1,30.2
	c0.8,0.5,1.2,1.4,0.7,2.3C61.9,107.1,61.3,107.5,60.7,107.5z"/>
<path fill="#6839D3" d="M60.7,116.2c-0.3,0-0.5-0.1-0.8-0.2L1.9,85.8c-0.8-0.5-1.2-1.4-0.7-2.3c0.4-0.8,1.4-1.2,2.3-0.7L61.5,113
	c0.8,0.5,1.2,1.4,0.7,2.3C61.9,115.8,61.3,116.2,60.7,116.2z"/>
<path fill="#6839D3" d="M60.7,124.8c-0.3,0-0.5-0.1-0.8-0.2L1.9,94.5C1.1,94,0.8,93,1.2,92.2c0.4-0.8,1.4-1.2,2.3-0.7l58.1,30.2
	c0.8,0.5,1.2,1.4,0.7,2.3C61.9,124.5,61.3,124.8,60.7,124.8z"/>
<path fill="#6839D3" d="M60.7,133.5c-0.3,0-0.5-0.1-0.8-0.2L1.9,103.2c-0.8-0.5-1.2-1.4-0.7-2.3c0.4-0.8,1.4-1.2,2.3-0.7l58.1,30.2
	c0.8,0.5,1.2,1.4,0.7,2.3C61.9,133.1,61.3,133.5,60.7,133.5z"/>
<path d="M111,67.8c0-6.2,1.5-11.1,4.5-14.7c3-3.6,6.9-5.4,11.9-5.4c4.9,0,8.9,1.7,11.9,5.3c3,3.5,4.5,8.3,4.6,14.4v4.5
	c0,6.2-1.5,11-4.5,14.6c-3,3.6-6.9,5.4-12,5.4c-5,0-8.9-1.7-11.8-5.2c-3-3.5-4.5-8.2-4.6-14.2V67.8z M117.9,71.9
	c0,4.4,0.8,7.8,2.6,10.3c1.7,2.5,4.1,3.7,6.9,3.7c6.1,0,9.3-4.4,9.5-13.3v-4.8c0-4.4-0.8-7.8-2.6-10.3c-1.7-2.5-4.1-3.8-6.9-3.8
	c-2.8,0-5.1,1.3-6.9,3.8c-1.7,2.5-2.6,5.9-2.6,10.3V71.9z"/>
<path d="M180.9,71.9c0,6.8-1.2,11.8-3.6,15.1c-2.4,3.3-5.9,5-10.3,5c-4.2,0-7.5-1.6-9.8-4.8v20.4h-6.9V48.6h6.3l0.3,4.7
	c2.3-3.7,5.7-5.5,10-5.5c4.6,0,8.2,1.6,10.4,4.9c2.3,3.2,3.5,8.1,3.6,14.6V71.9z M174,67.9c0-4.8-0.7-8.3-2.2-10.6
	c-1.5-2.3-3.8-3.4-7.1-3.4c-3.3,0-5.9,1.7-7.6,5v22.1c1.7,3.2,4.2,4.9,7.7,4.9c3.2,0,5.5-1.2,6.9-3.4c1.5-2.3,2.3-5.7,2.3-10.4V67.9
	z"/>
<path d="M202.4,91.9c-5.3,0-9.3-1.6-12.2-4.8c-2.8-3.2-4.2-7.8-4.3-13.9V68c0-6.3,1.3-11.3,4.1-14.9s6.6-5.4,11.6-5.4
	c5,0,8.7,1.6,11.1,4.8c2.4,3.2,3.7,8.1,3.8,14.8v4.6h-23.7v1c0,4.6,0.8,7.9,2.6,9.9c1.7,2.1,4.2,3.1,7.4,3.1c2.1,0,3.9-0.4,5.4-1.2
	c1.5-0.8,3-2,4.4-3.7l3.6,4.4C213.2,89.8,208.6,91.9,202.4,91.9z M201.6,53.7c-2.9,0-5,1-6.4,3c-1.4,2-2.2,5-2.4,9.2h16.7v-1
	c-0.2-4.1-0.9-6.9-2.2-8.6S204.3,53.7,201.6,53.7z"/>
<path d="M228.9,48.6l0.2,4.6c2.7-3.6,6.1-5.4,10.4-5.4c7.5,0,11.3,5,11.4,15.1v28.3H244v-28c0-3.3-0.6-5.7-1.7-7.1
	c-1.1-1.4-2.8-2.1-5-2.1c-1.7,0-3.3,0.6-4.6,1.7c-1.3,1.2-2.5,2.6-3.3,4.5v30.9h-6.9V48.6H228.9z"/>
<path d="M270.2,77.8c0,4.3,1.4,6.8,5.2,6.8c6.1,0,7.1-6.1,7.1-14.5v-2.8h-0.2c-1.9,2.9-5.7,4.8-10.7,4.8c-10.2,0-13.9-7.6-13.9-17.8
	c0-13.1,5.7-20.4,18.4-20.4c15.9,0,17.9,12.8,17.9,26.7c0,16.2-0.3,31.5-19.2,31.5c-8.2,0-15.7-3.5-15.8-14.4H270.2z M275.6,63.7
	c4.6,0,6.4-3.1,6.4-10.8c-0.1-6.5-1-11.3-6.4-11.3c-5.7,0-6.3,4.8-6.3,11.3C269.3,60.7,271.1,63.7,275.6,63.7z"/>
<path d="M308.8,77.8c0,4.3,1.3,6.8,5.2,6.8c6.1,0,7.1-6.1,7.1-14.5v-2.8h-0.2c-1.9,2.9-5.7,4.8-10.7,4.8c-10.2,0-13.9-7.6-13.9-17.8
	c0-13.1,5.7-20.4,18.4-20.4c15.9,0,17.9,12.8,17.9,26.7c0,16.2-0.3,31.5-19.2,31.5c-8.2,0-15.7-3.5-15.8-14.4H308.8z M314.2,63.7
	c4.6,0,6.4-3.1,6.4-10.8c-0.1-6.5-1-11.3-6.4-11.3c-5.7,0-6.3,4.8-6.3,11.3C307.9,60.7,309.7,63.7,314.2,63.7z"/>
<path d="M353.1,34.1c13.8,0,17.9,7.5,17.9,27.7c0,15.9-0.9,30.5-17.9,30.5c-13.8,0-17.9-7.5-17.9-27.7
	C335.2,48.8,336.1,34.1,353.1,34.1z M346.8,67c0,14.4,1.3,17.7,6.3,17.7c5.1,0,6.3-4.5,6.3-19.2v-6.2c0-14.4-1.3-17.7-6.3-17.7
	c-5.1,0-6.3,4.5-6.3,19.2V67z"/>
<path fill="#9995A3" d="M60.8,64.2c-0.6,0-1.2-0.3-1.5-0.9c-0.4-0.8-0.1-1.8,0.7-2.3l58.1-30.2c0.8-0.5,1.8-0.1,2.3,0.7
	s0.1,1.8-0.7,2.3L61.6,64C61.3,64.1,61.1,64.2,60.8,64.2z"/>
<path fill="#9995A3" d="M60.8,72.8c-0.6,0-1.2-0.3-1.5-0.9c-0.4-0.8-0.1-1.8,0.7-2.3l58.1-30.2c0.8-0.5,1.8-0.1,2.3,0.7
	c0.4,0.8,0.1,1.8-0.7,2.3L61.6,72.7C61.3,72.8,61.1,72.8,60.8,72.8z"/>
<path fill="#9995A3" d="M60.8,133.5c-0.6,0-1.2-0.3-1.5-0.9c-0.4-0.8-0.1-1.8,0.7-2.3l58.1-30.2c0.8-0.5,1.8-0.1,2.3,0.7
	s0.1,1.8-0.7,2.3l-58.1,30.2C61.3,133.4,61.1,133.5,60.8,133.5z"/>
<path fill="#9995A3" d="M110.8,51.9L60,78.3c-0.8,0.5-1.2,1.4-0.7,2.3c0.3,0.6,0.9,0.9,1.5,0.9c0.3,0,0.5-0.1,0.8-0.2l46.5-24
	C108.8,55.3,109.7,53.5,110.8,51.9z"/>
<path fill="#9995A3" d="M106.6,62.8L60,87c-0.8,0.5-1.2,1.4-0.7,2.3c0.3,0.6,0.9,0.9,1.5,0.9c0.3,0,0.5-0.1,0.8-0.2l44.7-23.2
	C106.3,65.4,106.4,64.1,106.6,62.8z"/>
<path fill="#9995A3" d="M106.2,71.7L60,95.7c-0.8,0.5-1.2,1.4-0.7,2.3c0.3,0.6,0.9,0.9,1.5,0.9c0.3,0,0.5-0.1,0.8-0.2l44.9-23.3
	C106.3,74.2,106.3,72.9,106.2,71.7z"/>
<path fill="#9995A3" d="M107.2,79.8L60,104.3c-0.8,0.5-1.2,1.4-0.7,2.3c0.3,0.6,0.9,0.9,1.5,0.9c0.3,0,0.5-0.1,0.8-0.2L108.3,83
	C107.9,82,107.6,81,107.2,79.8z"/>
<path fill="#9995A3" d="M111.5,88.4c-0.4-0.5-0.8-1-1.1-1.5L60,113.1c-0.8,0.5-1.2,1.4-0.7,2.3c0.3,0.6,0.9,0.9,1.5,0.9
	c0.3,0,0.5-0.1,0.8-0.2l51-26.5C112.2,89.2,111.8,88.8,111.5,88.4z"/>
<path fill="#9995A3" d="M116.3,92.5L60,121.6c-0.8,0.5-1.2,1.4-0.7,2.3c0.3,0.6,0.9,0.9,1.5,0.9c0.3,0,0.5-0.1,0.8-0.2l58.1-30.2
	c0.2-0.1,0.4-0.3,0.5-0.4C118.7,93.7,117.5,93.2,116.3,92.5z"/>
</svg>
